PathFileType	4	(X/Y/Z)	C:/Users/beibeiliu/ov580/test_trc/User1\sequence.24_training_dense_right.trc
DataRate	CameraRate	NumFrames	NumMarkers	Units	OrigDataRate	OrigDataStartFrame	OrigNumFrames
120	120	24	19	mm	120	1	76
Frame#	Time	ThumbCMC			ThumbMCP			ThumbIP			ThumbTip			IndexMCP			IndexPIP			IndexTip			MiddleMCP			MiddlePIP			MiddleTip			RingMCP			RingPIP			RingTip			PinkyMCP			PinkyPIP			PinkyTip			BackHand1			BackHand2			BackHand3	
		X0	Y0	Z0	X1	Y1	Z1	X2	Y2	Z2	X3	Y3	Z3	X4	Y4	Z4	X5	Y5	Z5	X6	Y6	Z6	X7	Y7	Z7	X8	Y8	Z8	X9	Y9	Z9	X10	Y10	Z10	X11	Y11	Z11	X12	Y12	Z12	X13	Y13	Z13	X14	Y14	Z14	X15	Y15	Z15	X16	Y16	Z16	X17	Y17	Z17	X18	Y18	Z18	
0	0	156.503	19.5938	84.8116	128.224	11.9359	58.4058	120.445	1.62897	31.2585	114.31	-11.4659	11.3319	178.934	9.51795	1.07473	167.566	-9.82106	-24.4097	150.666	-27.317	-34.8306	201.847	-8.87818	-2.01962	186.688	-23.1749	-29.231	162.05	-49.7182	-36.6233	210.904	-26.2293	6.63376	198.371	-42.9091	-19.4992	175.574	-64.2042	-25.9431	215.13	-45.1529	26.741	207.311	-59.2689	5.69919	189.44	-70.5667	-10.3779	217.594	-7.83823	63.816	218.935	-0.201555	98.746	196.095	21.8226	77.1068	
1	0.00833333	155.825	19.8974	79.3471	132.202	9.59182	59.9192	122.814	0.405986	29.9832	110.971	-11.0886	12.2741	178.734	8.37761	1.2103	167.147	-7.79893	-25.7009	150.304	-32.6898	-34.5166	199.888	-7.17109	-1.49336	184.428	-25.8377	-31.1687	161.055	-50.9651	-37.8498	209.691	-26.1654	4.38843	202.777	-46.1831	-16.5796	175.488	-63.6023	-25.9732	214.456	-46.0219	27.9457	206.22	-61.2889	5.62919	183.881	-68.9113	-9.88148	217.25	-9.18275	64.0766	218.478	-2.26623	98.4996	197.126	21.8139	73.8444	
2	0.0166667	155.429	21.4182	84.1412	133.862	9.06958	57.3774	122.165	1.60345	30.4679	115.157	-10.9746	11.6501	180.002	8.12581	0.74565	169.134	-4.76824	-23.3984	153.652	-30.4904	-33.6196	200.249	-8.82347	-6.29032	185.467	-25.0418	-31.0178	160.855	-51.512	-37.7367	212.425	-28.1316	6.23024	201.257	-42.712	-17.0771	177.334	-63.1953	-24.9172	215.843	-45.9515	26.2391	207.581	-60.7007	8.1706	187.728	-68.1857	-8.44452	219.1	-9.74192	63.1155	222.307	-4.05727	96.1628	199.916	20.9624	75.4935	
3	0.025	155.019	22.2808	80.6204	131.375	11.2485	59.058	122.987	1.89439	28.9088	113.04	-11.0554	9.79642	179.165	10.9756	1.48249	167.178	-7.26003	-25.9376	153.421	-31.9738	-34.1519	203.458	-10.5591	-3.87372	187.257	-28.4122	-30.921	163.677	-51.7877	-36.4674	212.448	-26.3601	4.00273	200.403	-45.3998	-19.9982	176.655	-62.0416	-25.5707	216.228	-45.2297	27.3589	208.805	-58.4846	8.98769	184.993	-70.3332	-9.91787	218.609	-6.04731	62.5416	219.523	-3.73832	98.5838	196.979	23.073	71.3373	
4	0.0333333	154.539	23.0379	79.0165	132.417	10.2679	57.9763	122.431	1.89139	29.9726	114.337	-12.3672	9.32997	180.09	8.30297	-1.75126	169.183	-5.06187	-24.9877	153.936	-31.7884	-33.5089	201.071	-6.18775	-1.62436	185.859	-27.1469	-30.7875	163.583	-48.7929	-37.9141	211.987	-25.5878	9.08076	198.787	-43.669	-20.468	176.301	-63.4272	-26.9962	217.047	-46.3221	30.3662	206.711	-60.36	5.3136	184.665	-70.6118	-9.0254	217.931	-7.18707	65.8575	222.571	-4.76436	98.825	200.011	19.1491	75.7436	
5	0.0416667	154.849	21.462	78.184	134.253	8.4016	57.708	123.681	0.426086	34.4061	114.704	-11.6706	12.6932	177.59	10.1003	-0.559301	170.131	-10.2934	-24.6822	148.246	-29.7014	-36.3008	202.44	-9.02636	-1.22648	189.884	-27.8266	-28.8683	164.585	-48.2857	-37.3544	211.203	-26.1189	5.55484	202.771	-45.155	-18.3525	178.399	-60.1516	-25.7451	217.343	-48.853	27.3823	208.626	-58.1524	7.69058	185.306	-73.0192	-10.9878	220.201	-11.5789	63.6511	220.015	-4.16837	95.6639	199.952	18.6389	71.7721	
6	0.05	155.705	19.5546	79.8477	130.666	11.0105	58.601	119.709	2.84301	30.9113	110.372	-10.3493	12.0311	177.591	9.16696	-0.288703	165.893	-6.42635	-26.0671	151.418	-32.7006	-33.8631	200.023	-6.9039	-2.9574	187.396	-25.8167	-29.0746	162.472	-49.8294	-37.1458	213.396	-28.8419	6.21412	202.234	-46.0858	-17.9792	179.389	-63.231	-25.2009	215.792	-45.8071	29.5087	207.829	-62.9645	7.38597	184.685	-73.2858	-10.3512	218.033	-7.5306	65.9252	217.707	-2.19064	97.6459	197.242	20.0335	72.3562	
7	0.0583333	153.781	20.99	84.3577	130.528	11.3316	58.7094	120.402	2.78691	32.5044	111.272	-9.87041	10.5851	176.071	11.1175	-1.06386	166.063	-9.98601	-25.3826	147.941	-32.727	-35.3033	199.866	-9.14141	-3.81724	185.804	-26.5503	-29.4029	160.437	-54.271	-36.7369	212.333	-29.5911	5.9735	201.067	-47.2356	-18.1455	177.472	-60.6299	-26.0652	216.19	-45.1081	30.6447	208.774	-58.3559	9.07875	187.982	-72.6486	-10.6208	218.347	-6.19409	61.5313	218.495	-1.35933	99.5798	195.576	23.0018	75.2342	
8	0.0666667	156.914	19.2971	79.7539	130.733	11.4831	59.2603	122.339	2.7107	34.7978	111.092	-9.43663	13.2427	177.057	8.90683	-1.35181	166.723	-7.35883	-25.417	152.075	-30.2638	-33.4391	201.174	-8.44643	-2.66101	185.214	-28.0176	-30.2503	164.068	-47.8371	-36.7637	211.828	-24.7841	8.86652	201.272	-42.3033	-17.1418	176.132	-63.0699	-26.0667	217.193	-46.2332	28.913	206.479	-58.0274	7.32881	189.717	-72.4395	-7.80223	221.532	-9.11041	63.604	221.06	-4.25644	96.8174	197.795	19.9245	76.3965	
9	0.075	155.279	22.5303	83.6475	130.632	11.5119	58.1356	121.32	4.0601	33.9471	111.71	-8.49626	10.7757	179.063	8.41946	-1.47469	166.998	-3.63711	-23.4933	149.172	-30.6162	-34.2749	199.277	-5.80748	-6.34151	185.161	-26.3944	-30.959	162.961	-46.4214	-38.7676	212.797	-24.9832	8.44879	201.183	-40.5848	-17.9802	176.95	-59.761	-26.3727	218.136	-47.7637	28.6629	207.572	-58.4195	6.88904	187.092	-67.4297	-10.6264	216.238	-6.66697	65.0686	220.556	-4.53905	95.201	200.632	20.3241	76.7595	
10	0.0833333	157.873	21.264	80.2918	129.999	13.4793	55.1946	118.92	4.61596	31.2262	112.803	-9.23235	9.55437	178.468	12.1186	0.931555	165.518	-5.63491	-26.4574	153.508	-30.4044	-34.1403	200.53	-7.4083	-5.17625	189.583	-25.4239	-29.5505	163.736	-47.7675	-37.884	213.194	-26.704	4.6895	201.697	-41.5472	-19.164	177.54	-59.5656	-26.9952	217.493	-48.1714	28.2877	207.24	-57.6098	6.48837	184.357	-68.6738	-12.3077	216.695	-6.12571	66.1938	220.56	-1.8432	98.4587	198.171	19.7764	76.4782	
11	0.0916667	156.381	22.2204	83.6806	135.132	11.6481	57.3351	121.959	4.30418	27.6097	112.429	-8.26075	6.74005	177.508	12.3631	-2.00965	168.294	-6.41524	-26.2556	150.209	-29.9033	-35.4675	200.22	-4.19499	-3.09138	188.47	-24.8385	-31.2886	162.202	-45.1449	-40.0002	213.41	-25.6557	4.74339	202.233	-42.3901	-18.9184	175.213	-59.3814	-27.4302	214.928	-44.4165	23.5076	205.993	-59.1518	3.7435	185.988	-69.5483	-11.5479	219.234	-7.94434	60.7832	220.006	-2.22402	96.2202	196.651	22.7694	71.3957	
12	0.1	156.254	24.6266	81.8861	135.248	12.7678	56.4298	123.432	5.382	32.6643	113.825	-5.93634	10.5197	179.146	12.8832	-4.66001	169.652	-6.20314	-25.9409	151.98	-24.0702	-35.0353	200.998	-5.38116	-7.98123	187.838	-27.7522	-31.1608	163.371	-47.0405	-38.0603	212.743	-25.6653	3.52169	200.896	-45.3739	-20.4309	175.206	-57.706	-28.8643	217.067	-46.3677	24.4222	206.162	-56.6271	4.53149	184.908	-65.7597	-11.8577	220.327	-5.64493	62.0338	220.065	-3.17079	95.4997	199.802	24.169	75.0667	
13	0.108333	160.483	21.5445	79.456	134.842	12.3385	55.6509	125.974	4.9955	30.9687	113.985	-6.16357	11.881	182.265	10.2882	-0.602999	171.543	-7.15555	-25.4481	149.916	-28.9971	-36.5076	205.071	-8.43763	-2.69521	190.777	-25.4228	-29.4566	161.969	-49.2158	-38.3097	214.546	-28.8165	3.36366	199.828	-39.5613	-19.7651	179.577	-57.9411	-27.5549	218.678	-47.0839	28.3445	206.308	-59.1735	4.2797	187.524	-63.666	-10.9544	219.659	-6.69782	65.3822	221.316	-3.83769	94.7449	200.341	24.1389	75.2952	
14	0.116667	158.933	23.2497	79.2337	131.959	14.8738	57.2831	124.695	6.12264	31.082	114.655	-6.43226	6.50042	181.201	12.1792	-4.75601	170.295	-7.84646	-26.2921	151.503	-25.6691	-35.699	201.561	-5.12038	-5.0314	191.215	-24.5649	-28.7685	162.225	-46.6249	-38.3873	215.045	-28.044	5.0556	199.641	-42.9734	-21.72	174.928	-58.424	-28.7692	217.677	-45.1989	28.0504	211.118	-59.2696	6.07062	185.814	-66.2201	-12.8863	221.703	-9.12654	64.3016	220.584	-1.26582	96.616	199.981	22.3372	71.7725	
15	0.125	159.079	26.4642	78.5485	135.028	15.1205	56.4501	124.257	8.20877	31.3749	115.622	-4.0526	10.5082	181.805	14.6808	-4.07223	169.338	-3.7525	-27.2029	151.681	-23.2263	-36.7542	202.594	-5.20696	-7.01071	186.7	-21.3864	-31.9765	163.406	-42.2027	-39.8723	213.353	-22.9646	3.08477	205.25	-42.148	-19.022	178.566	-58.9233	-28.3761	219.239	-44.5307	27.088	210.869	-57.6996	6.14332	188.275	-64.8673	-12.3768	224.407	-7.60635	65.1883	224.919	-2.49387	94.7269	200.971	23.6679	75.1923	
16	0.133333	162.548	24.1765	80.2952	135.388	16.4451	55.4495	128.667	6.99897	28.1062	117.202	-4.14044	8.39993	182.895	14.887	-4.43885	170.901	-0.718518	-26.6684	153.865	-26.5254	-36.4648	204.658	-1.89251	-4.13261	190.307	-19.0275	-30.2649	168.145	-44.5856	-38.1072	215.469	-21.6625	7.7848	202.645	-40.68	-20.4555	177.984	-57.1171	-28.9341	221.104	-43.7095	29.5163	208.658	-56.5487	4.8239	187.481	-64.3956	-12.3188	224.515	-5.08297	65.6534	225.83	-1.25415	98.4619	202.679	23.3837	76.4952	
17	0.141667	160.793	26.1973	78.8319	138.163	13.6966	53.4119	125.292	7.84172	31.2245	116.378	-2.97986	11.1956	184.697	12.1885	-3.91931	173.311	-4.31589	-26.0108	155.859	-25.4889	-34.9479	205.599	-5.84947	-5.92547	190.116	-23.0826	-31.4461	164.875	-42.472	-40.2125	214.976	-21.863	4.39039	202.53	-43.54	-20.8089	179.262	-55.0255	-28.1412	219.61	-43.2688	25.1192	209.054	-57.6017	4.56439	191.528	-68.142	-12.1863	225.386	-6.37289	65.4408	225.256	-1.26736	100.261	200.81	25.3899	76.0615	
18	0.15	157.953	27.4377	83.0042	136.224	14.9393	54.0513	123.34	8.0493	32.1592	114.037	-3.36489	9.25031	181.955	15.5209	-1.83921	173.692	-2.17157	-24.4523	155.108	-28.4606	-36.077	203.586	-3.18246	-7.36449	192.856	-21.448	-28.8486	166.344	-46.8783	-38.7101	217.601	-24.859	8.46416	205.168	-39.2461	-19.118	178.614	-56.2641	-27.9599	220.027	-42.6352	28.7545	208.636	-56.6034	3.95263	191.949	-66.3955	-10.0745	221.804	-3.49227	63.2303	220.792	-0.683603	97.4647	202.608	23.7123	75.5803	
19	0.158333	158.438	27.6948	79.612	138.105	14.8188	53.4721	126.438	7.5647	32.6833	114.91	-3.75753	9.48147	181.894	15.7861	0.480338	171.991	-1.09533	-25.412	153.896	-21.5367	-35.9538	205.914	-6.63444	-6.09562	190.657	-22.312	-30.411	164.198	-44.943	-40.0014	215.977	-24.6225	3.70895	202.053	-37.9151	-21.1163	176.152	-56.9684	-28.1944	218.211	-41.1395	28.9274	210.6	-55.8426	6.01105	187.537	-62.9049	-13.9187	221.56	-2.87773	60.9954	223.329	-0.737669	94.7089	202.577	23.8219	77.2163	
20	0.166667	161.11	25.5602	78.2007	137.141	16.3907	57.2717	122.238	10.1411	30.9538	119.04	-4.03785	9.9027	184.71	12.831	-1.03596	171.421	0.558056	-25.858	153.229	-21.6022	-35.6093	204.561	-1.36381	-3.50338	192.898	-19.4921	-30.0239	161.816	-41.9567	-41.2896	215.609	-22.658	3.75999	201.223	-38.4286	-21.7973	181.241	-57.3717	-27.2376	220.57	-45.3017	27.4275	212.066	-57.3506	7.38751	190.44	-67.0049	-12.0433	225.146	-6.32332	66.3499	225.325	-1.26983	97.891	200.046	26.6933	71.4464	
21	0.175	160.671	27.6864	77.874	138.882	14.8782	53.1807	123.759	9.86047	28.9799	116.274	-2.91904	11.212	183.806	13.5067	-4.44125	173.862	1.83922	-25.268	151.883	-24.0185	-37.3546	205.328	-3.17301	-5.82666	188.368	-18.2057	-32.6121	163.948	-42.056	-40.894	217.447	-25.1427	3.29196	204.954	-38.4836	-18.8875	181.788	-57.183	-28.0496	220.259	-45.2238	24.6086	209.575	-55.5165	5.56142	189.626	-64.3006	-12.5847	222.441	-1.97414	65.9189	223.681	-0.878899	97.5838	204.14	24.2505	75.4857	
22	0.183333	161.116	26.8218	78.2843	138.579	15.0053	56.4683	126.781	9.02106	26.7718	117.457	-3.41454	7.94445	183.712	15.0396	-4.58323	172.352	-1.68216	-26.4503	155.679	-24.192	-36.6412	207.005	-4.7001	-1.9831	192.6	-21.1279	-30.2021	163.538	-43.8457	-40.3909	218.139	-24.6067	7.5757	204.946	-38.3784	-20.2856	182.014	-58.6098	-28.4044	218.634	-42.0334	23.6488	211.416	-57.2627	6.14164	188.564	-61.9607	-14.2798	223.312	-2.45351	60.9672	221.552	0.404548	99.029	202.722	24.1039	71.9748	
23	0.191667	158.567	27.6206	80.7361	137.201	14.7002	55.4254	127.717	7.24733	31.7032	113.708	-2.98673	8.99402	185.67	14.19	0.0512459	172.365	0.213431	-27.358	157.917	-24.442	-35.9585	205.001	-1.36341	-2.47682	192.635	-20.828	-30.4974	167.614	-42.0432	-40.7569	216.224	-24.2009	5.83846	204.438	-42.6297	-21.5504	177.352	-57.0769	-29.686	219.728	-43.241	24.5673	212.47	-52.8037	6.55004	189.183	-65.3236	-11.6526	222.653	-5.31314	60.9768	223.837	0.620129	98.5701	202.165	25.1386	76.0945	
